HIERARCHY
ROOT Hips
{
	OFFSET 0.000000 0.000000 0.000000
	CHANNELS 6 Xposition Yposition Zposition Xrotation Yrotation Zrotation
	JOINT LeftUpLeg_virtual
	{
		OFFSET 0.000000 0.000000 0.000000
		CHANNELS 3 Xrotation Yrotation Zrotation
		JOINT LeftUpLeg
		{
			OFFSET 10.205400 -3.823500 0.155100
			CHANNELS 3 Xrotation Yrotation Zrotation
			JOINT LeftLeg
			{
				OFFSET 0.708757 -12.982077 0.567790
				CHANNELS 3 Xrotation Yrotation Zrotation
				JOINT LeftFoot
				{
					OFFSET -0.708756 -10.717838 -2.184338
					CHANNELS 3 Xrotation Yrotation Zrotation
					JOINT LeftToeBase
					{
						OFFSET 0.108149 -7.191104 7.560241
						CHANNELS 3 Xrotation Yrotation Zrotation
						JOINT LeftToe_End
						{
							OFFSET 0.070230 0.081724 4.490308
							CHANNELS 3 Xrotation Yrotation Zrotation
							End Site
							{
								OFFSET 0 0 0
							}
						}
					}
				}
			}
		}
	}
	JOINT RightUpLeg_virtual
	{
		OFFSET 0.000000 0.000000 0.000000
		CHANNELS 3 Xrotation Yrotation Zrotation
		JOINT RightUpLeg
		{
			OFFSET -10.205400 -3.823500 0.005500
			CHANNELS 3 Xrotation Yrotation Zrotation
			JOINT RightLeg
			{
				OFFSET -0.708756 -12.982134 0.610632
				CHANNELS 3 Xrotation Yrotation Zrotation
				JOINT RightFoot
				{
					OFFSET 0.708754 -10.717769 -1.945823
					CHANNELS 3 Xrotation Yrotation Zrotation
					JOINT RightToeBase
					{
						OFFSET -0.108140 -7.191069 7.372968
						CHANNELS 3 Xrotation Yrotation Zrotation
						JOINT RightToe_End
						{
							OFFSET -0.070227 0.081735 4.479403
							CHANNELS 3 Xrotation Yrotation Zrotation
							End Site
							{
								OFFSET 0 0 0
							}
						}
					}
				}
			}
		}
	}
	JOINT Spine_virtual
	{
		OFFSET 0.000000 0.000000 0.000000
		CHANNELS 3 Xrotation Yrotation Zrotation
		JOINT Spine
		{
			OFFSET 0.000000 6.876099 0.125700
			CHANNELS 3 Xrotation Yrotation Zrotation
			JOINT Spine1
			{
				OFFSET 0.000000 5.730043 0.104720
				CHANNELS 3 Xrotation Yrotation Zrotation
				JOINT Spine1_split
				{
					OFFSET 0.000000 5.730043 0.104720
					CHANNELS 3 Xrotation Yrotation Zrotation
					JOINT Spine2
					{
						OFFSET 0.000000 5.730043 0.104720
						CHANNELS 3 Xrotation Yrotation Zrotation
						JOINT Neck_virtual
						{
							OFFSET 0.000000 0.000000 0.000000
							CHANNELS 3 Xrotation Yrotation Zrotation
							JOINT Neck
							{
								OFFSET 0.000000 10.314075 0.188496
								CHANNELS 3 Xrotation Yrotation Zrotation
								JOINT Head
								{
									OFFSET 0.000000 7.643700 -2.377400
									CHANNELS 3 Xrotation Yrotation Zrotation
									JOINT HeadTop_End
									{
										OFFSET 0.000000 43.788605 -13.619600
										CHANNELS 3 Xrotation Yrotation Zrotation
										End Site
										{
											OFFSET 0 0 0
										}
									}
								}
							}
						}
						JOINT LeftShoulder_virtual
						{
							OFFSET 0.000000 0.000000 0.000000
							CHANNELS 3 Xrotation Yrotation Zrotation
							JOINT LeftShoulder
							{
								OFFSET 2.196100 4.412489 0.087492
								CHANNELS 3 Xrotation Yrotation Zrotation
								JOINT LeftShoulder_split
								{
									OFFSET 2.196100 4.412489 0.087492
									CHANNELS 3 Xrotation Yrotation Zrotation
									JOINT LeftArm
									{
										OFFSET 8.771219 -2.981674 -0.026999
										CHANNELS 3 Xrotation Yrotation Zrotation
										JOINT LeftForeArm
										{
											OFFSET 8.512804 0.000000 -0.000000
											CHANNELS 3 Xrotation Yrotation Zrotation
											JOINT LeftHand
											{
												OFFSET 18.484802 0.000000 -0.000000
												CHANNELS 3 Xrotation Yrotation Zrotation
												End Site
												{
													OFFSET 0 0 0
												}
											}
										}
									}
								}
							}
						}
						JOINT RightShoulder_virtual
						{
							OFFSET 0.000000 0.000000 0.000000
							CHANNELS 3 Xrotation Yrotation Zrotation
							JOINT RightShoulder
							{
								OFFSET -2.196100 4.412496 0.070690
								CHANNELS 3 Xrotation Yrotation Zrotation
								JOINT RightShoulder_split
								{
									OFFSET -2.196100 4.412496 0.070690
									CHANNELS 3 Xrotation Yrotation Zrotation
									JOINT RightArm
									{
										OFFSET -8.771282 -2.981682 -0.094208
										CHANNELS 3 Xrotation Yrotation Zrotation
										JOINT RightForeArm
										{
											OFFSET -8.494598 0.000000 0.000000
											CHANNELS 3 Xrotation Yrotation Zrotation
											JOINT RightHand
											{
												OFFSET -18.483803 0.000000 0.000001
												CHANNELS 3 Xrotation Yrotation Zrotation
												End Site
												{
													OFFSET 0 0 0
												}
											}
										}
									}
								}
							}
						}
					}
				}
			}
		}
	}
}
MOTION
Frames: 10
Frame Time: 0.03333333
1.359945 26.730068 -3.459177 0.000000 0.000000 0.000000 8.795277 -2.741608 4.461375 -55.906386 -2.898997 22.914742 55.409773 -7.348001 5.799622 1.390564 8.402985 -36.374101 1.262654 -4.434864 3.502697 0.000000 0.000000 0.000000 9.102449 -2.687403 4.498887 -34.095522 -4.775429 -34.783131 54.888052 21.846676 -7.432274 -25.973212 -24.358420 38.941705 6.310204 13.671380 -15.404021 0.000000 0.000000 0.000000 8.977512 4.523458 3.254782 3.864173 -0.319929 -2.473411 9.557042 -0.301567 1.134130 0.062712 0.153560 -0.100948 0.000000 0.000000 0.000000 8.564684 2.391802 0.971299 -2.111551 -3.048828 -7.897592 -32.526918 2.833386 -6.329672 0.000000 0.000000 0.000000 7.099380 0.415698 -0.424599 4.586376 -23.955936 -2.142169 -2.960767 -5.264334 -0.054605 -16.154208 1.259174 -40.156823 -164.161712 -67.508886 -163.480195 0.000000 0.000000 0.000000 9.209675 1.603205 0.757006 -0.509562 7.261225 6.151746 5.308038 4.372870 4.580104 8.597741 2.722755 39.042809 -87.758218 84.601120 94.155319 0.000000 0.000000 0.000000 
1.379299 26.732620 -3.425449 0.000000 0.000000 0.000000 8.822791 -2.774416 4.433773 -55.890874 -3.015191 22.939937 55.514528 -7.350776 5.813890 1.501964 8.412086 -36.487120 1.246581 -4.451867 3.557906 0.000000 0.000000 0.000000 9.098186 -2.682076 4.465276 -34.112260 -4.772638 -34.777995 54.833001 21.856363 -7.412761 -25.882232 -24.376144 39.014112 6.316516 13.662259 -15.401723 0.000000 0.000000 0.000000 8.956153 4.487633 3.196046 3.813452 -0.311123 -2.494048 9.596635 -0.321533 1.129226 0.067941 0.168712 -0.103874 0.000000 0.000000 0.000000 8.564564 2.370175 0.971110 -2.046627 -2.943791 -7.963235 -32.384393 3.121474 -6.283000 0.000000 0.000000 0.000000 7.126093 0.398948 -0.414998 4.581619 -23.978564 -2.159108 -2.909110 -5.274550 -0.100908 -16.340690 1.124624 -40.267496 -164.150059 -67.616462 -163.439528 0.000000 0.000000 0.000000 9.224065 1.570435 0.749726 -0.505363 7.431749 6.139818 5.547220 4.618773 4.516587 8.680808 2.642165 38.936245 -89.091615 84.627171 95.507047 0.000000 0.000000 0.000000 
1.407009 26.734785 -3.384771 0.000000 0.000000 0.000000 8.887313 -2.876401 4.401592 -55.848671 -3.213313 22.894584 55.674310 -7.273407 5.820291 1.505245 8.533328 -36.446354 1.121556 -4.462046 3.484876 0.000000 0.000000 0.000000 9.120047 -2.790214 4.443301 -34.182382 -4.726051 -34.750517 54.723192 21.835662 -7.400273 -25.746910 -24.393812 39.027458 6.484766 13.621861 -15.454343 0.000000 0.000000 0.000000 8.940196 4.411766 3.132086 3.735265 -0.269499 -2.528144 9.644728 -0.349897 1.121623 0.073440 0.165910 -0.102774 0.000000 0.000000 0.000000 8.563140 2.337380 0.968744 -1.947027 -2.765460 -8.079409 -31.979127 3.564726 -6.301246 0.000000 0.000000 0.000000 7.160587 0.371349 -0.416511 4.559120 -23.963276 -2.129588 -2.743931 -5.275601 -0.144434 -16.634478 0.968208 -40.505727 -164.208307 -67.938676 -163.509948 0.000000 0.000000 0.000000 9.254266 1.535096 0.736888 -0.474807 7.639765 6.108956 5.613195 4.737623 4.506905 8.988849 2.811931 38.452917 -88.368619 84.692187 94.826399 0.000000 0.000000 0.000000 
1.433530 26.731001 -3.348328 0.000000 0.000000 0.000000 8.954832 -3.019879 4.367888 -55.797492 -3.448786 22.810424 55.867112 -7.155165 5.826781 1.407984 8.744511 -36.285636 0.911205 -4.461814 3.306160 0.000000 0.000000 0.000000 9.167554 -2.967983 4.424035 -34.297344 -4.630327 -34.689069 54.619476 21.778395 -7.393179 -25.524629 -24.408410 39.024081 6.678372 13.569241 -15.538011 0.000000 0.000000 0.000000 8.923731 4.333694 3.080236 3.647578 -0.199942 -2.570125 9.691145 -0.388374 1.105569 0.078989 0.150283 -0.094193 0.000000 0.000000 0.000000 8.553809 2.294614 0.959012 -1.834548 -2.521422 -8.224845 -31.373641 4.120992 -6.376707 0.000000 0.000000 0.000000 7.194932 0.330999 -0.436336 4.519741 -23.939084 -2.068714 -2.511217 -5.252054 -0.200757 -16.966274 0.791805 -40.798069 -164.302837 -68.382754 -163.662807 0.000000 0.000000 0.000000 9.286931 1.492191 0.715158 -0.421321 7.874310 6.059065 5.539102 4.765136 4.579650 9.429172 3.142558 37.693007 -86.277809 84.772804 92.805913 0.000000 0.000000 0.000000 
1.451722 26.720137 -3.332476 0.000000 0.000000 0.000000 9.005540 -3.131953 4.324809 -55.751296 -3.687340 22.709438 56.066345 -7.044814 5.850705 1.274225 8.990225 -36.069522 0.687229 -4.453015 3.073810 0.000000 0.000000 0.000000 9.231264 -3.103925 4.390498 -34.426308 -4.481649 -34.591930 54.530161 21.705262 -7.397481 -25.197413 -24.415119 39.085542 6.676104 13.532317 -15.619622 0.000000 0.000000 0.000000 8.916641 4.294371 3.049061 3.573410 -0.112768 -2.616302 9.732522 -0.442218 1.072039 0.080792 0.136366 -0.082181 0.000000 0.000000 0.000000 8.534611 2.239423 0.934850 -1.737228 -2.227930 -8.377442 -30.697339 4.736151 -6.482505 0.000000 0.000000 0.000000 7.225410 0.276404 -0.478908 4.473093 -23.936958 -1.978260 -2.263656 -5.181600 -0.258119 -17.273941 0.597120 -41.048293 -164.407967 -68.804573 -163.854517 0.000000 0.000000 0.000000 9.313503 1.439782 0.678185 -0.346797 8.117873 6.000964 5.362394 4.768056 4.721460 9.879614 3.527402 36.761212 -83.987162 84.839235 90.618579 0.000000 0.000000 0.000000 
1.461811 26.701637 -3.345224 0.000000 0.000000 0.000000 9.036035 -3.190508 4.273450 -55.765161 -3.901218 22.625671 56.268632 -6.986012 5.893226 1.197771 9.200572 -35.882542 0.549814 -4.435148 2.829207 0.000000 0.000000 0.000000 9.294319 -3.142335 4.337176 -34.528300 -4.281431 -34.455900 54.449339 21.638241 -7.422784 -24.862066 -24.408347 39.193473 6.489647 13.510708 -15.672228 0.000000 0.000000 0.000000 8.929596 4.303167 3.049913 3.538094 -0.016705 -2.657901 9.772139 -0.509643 1.016303 0.078288 0.119152 -0.072459 0.000000 0.000000 0.000000 8.505018 2.175467 0.893605 -1.666631 -1.906088 -8.510567 -30.035282 5.381881 -6.594875 0.000000 0.000000 0.000000 7.246178 0.209742 -0.543957 4.422948 -23.967262 -1.882353 -2.060801 -5.034822 -0.340209 -17.507056 0.417017 -41.162589 -164.515461 -69.077678 -164.064122 0.000000 0.000000 0.000000 9.328286 1.376973 0.625777 -0.256760 8.360692 5.940032 5.193704 4.735769 4.890079 10.220611 3.805212 35.791916 -82.034875 84.888105 88.812294 0.000000 0.000000 0.000000 
1.462547 26.684435 -3.377182 0.000000 0.000000 0.000000 9.037359 -3.189382 4.224889 -55.843565 -4.057443 22.592808 56.414371 -6.988167 5.955352 1.219032 9.331036 -35.762177 0.506317 -4.422317 2.677695 0.000000 0.000000 0.000000 9.334851 -3.110067 4.273718 -34.571774 -4.074257 -34.284640 54.379859 21.579119 -7.463592 -24.658122 -24.385898 39.201358 6.382980 13.475705 -15.674634 0.000000 0.000000 0.000000 8.951534 4.334967 3.079617 3.550900 0.089138 -2.683153 9.800754 -0.584508 0.943804 0.073629 0.110441 -0.069324 0.000000 0.000000 0.000000 8.467087 2.108585 0.838562 -1.624414 -1.565059 -8.606090 -29.450123 6.030958 -6.697459 0.000000 0.000000 0.000000 7.257658 0.140311 -0.622024 4.375519 -24.039966 -1.790457 -1.977669 -4.850653 -0.442567 -17.592998 0.280606 -41.114057 -164.571154 -69.150345 -164.215397 0.000000 0.000000 0.000000 9.328588 1.308647 0.564209 -0.155180 8.601454 5.867497 5.120448 4.704607 5.057890 10.391731 3.868122 34.872327 -81.292748 84.935738 88.257498 0.000000 0.000000 0.000000 
1.454220 26.676674 -3.419500 0.000000 0.000000 0.000000 9.009051 -3.141427 4.198120 -55.932392 -4.129397 22.593554 56.446773 -7.044717 6.032572 1.353981 9.357920 -35.734037 0.596891 -4.422600 2.657373 0.000000 0.000000 0.000000 9.328332 -3.050935 4.232089 -34.577423 -3.904335 -34.120220 54.318671 21.519112 -7.501183 -24.625243 -24.346493 39.059653 6.469760 13.416967 -15.623306 0.000000 0.000000 0.000000 8.966321 4.372358 3.138772 3.594227 0.198984 -2.684777 9.813382 -0.657705 0.864694 0.070021 0.109811 -0.074295 0.000000 0.000000 0.000000 8.423486 2.044240 0.781675 -1.590247 -1.229007 -8.653966 -28.974728 6.639213 -6.797690 0.000000 0.000000 0.000000 7.261878 0.078594 -0.698802 4.336194 -24.139186 -1.719683 -2.024987 -4.720662 -0.552419 -17.512952 0.232991 -40.941226 -164.491487 -69.083969 -164.215247 0.000000 0.000000 0.000000 9.318772 1.248577 0.505738 -0.040672 8.847048 5.773217 5.069672 4.561982 5.275461 10.389170 3.682698 34.039464 -83.111320 85.004873 90.299718 0.000000 0.000000 0.000000 
1.434968 26.681814 -3.464382 0.000000 0.000000 0.000000 8.932690 -3.080539 4.210191 -55.965064 -4.124898 22.603213 56.328778 -7.158860 6.127946 1.582172 9.288338 -35.831739 0.791821 -4.437448 2.766481 0.000000 0.000000 0.000000 9.234075 -3.055364 4.250796 -34.574069 -3.779451 -33.996177 54.287764 21.482504 -7.535990 -24.649927 -24.268934 38.892159 6.568653 13.366364 -15.535808 0.000000 0.000000 0.000000 8.935314 4.410395 3.221838 3.645731 0.309656 -2.644433 9.803745 -0.709832 0.797069 0.067661 0.115124 -0.078547 0.000000 0.000000 0.000000 8.370824 1.996987 0.740895 -1.545079 -0.914842 -8.647054 -28.558998 7.197878 -6.908797 0.000000 0.000000 0.000000 7.243422 0.034090 -0.758760 4.302796 -24.256841 -1.681265 -2.179819 -4.660270 -0.639286 -17.318202 0.326163 -40.705151 -164.249575 -68.977240 -164.046227 0.000000 0.000000 0.000000 9.299113 1.210783 0.466891 0.091980 9.087631 5.649184 4.995412 4.381438 5.547044 10.269839 3.216926 33.261782 -88.400160 85.076017 95.824576 0.000000 0.000000 0.000000 
1.403390 26.699944 -3.512901 0.000000 0.000000 0.000000 8.785137 -3.044608 4.279325 -55.835608 -4.055635 22.585631 56.033236 -7.311949 6.233588 1.834601 9.167768 -36.022711 0.996568 -4.471373 2.998080 0.000000 0.000000 0.000000 9.033149 -3.188610 4.348495 -34.568438 -3.688439 -33.928244 54.324719 21.495804 -7.574560 -24.598185 -24.133191 38.834724 6.515825 13.348633 -15.451963 0.000000 0.000000 0.000000 8.812212 4.420550 3.323852 3.674169 0.416450 -2.547678 9.766327 -0.736577 0.758625 0.065007 0.121907 -0.086701 0.000000 0.000000 0.000000 8.307878 1.972798 0.735124 -1.481353 -0.641487 -8.584241 -28.110911 7.725186 -7.054291 0.000000 0.000000 0.000000 7.190202 0.012511 -0.785801 4.276814 -24.368904 -1.663346 -2.347322 -4.716393 -0.708808 -17.051024 0.600118 -40.475585 -163.867727 -68.900619 -163.734975 0.000000 0.000000 0.000000 9.263710 1.202575 0.462844 0.241203 9.301854 5.504988 4.812192 4.221387 5.821275 10.140601 2.496096 32.479551 -97.977923 85.050622 105.631935 0.000000 0.000000 0.000000 
